<?xml version="1.0" encoding="utf-8"?>
<svg width="256px" height="256px" viewBox="0 0 256 256" version="1.1" preserveAspectRatio="xMidYMid" xmlns="http://www.w3.org/2000/svg">
  <path d="M 50.282 0 L 205.718 0 C 233.488 0 256 22.512 256 50.282 L 256 205.718 C 256 233.488 233.488 256 205.718 256 L 50.282 256 C 22.512 256 0 233.488 0 205.718 L 0 50.282 C 0 22.512 22.512 0 50.282 0 Z M 98.9 226.768 C 137.236 229.222 196.106 225.407 197.5 207.267 C 197.5 207.267 194.82 214.144 165.817 219.605 C 133.097 225.762 92.74 225.043 68.804 221.097 C 68.805 221.097 73.704 225.152 98.9 226.768 Z M 184.015 196.429 C 184.015 196.429 190.035 201.389 177.385 205.227 C 153.331 212.514 77.27 214.714 56.141 205.517 C 48.545 202.213 62.789 197.627 67.269 196.665 C 71.942 195.652 74.613 195.84 74.613 195.84 C 66.166 189.89 20.015 207.525 51.17 212.575 C 136.136 226.354 206.054 206.37 184.015 196.429 Z M 152.645 190.371 C 145.82 187.717 140.932 184.652 140.932 184.652 C 122.343 188.17 113.722 188.446 96.853 186.522 C 82.929 184.921 91.064 180.19 91.064 180.19 C 58.332 189.336 110.973 208.231 152.645 190.371 Z M 156.418 166.69 C 151.062 164.801 147.656 161.349 147.656 161.349 C 123.032 166.09 108.802 165.938 90.782 164.079 C 76.847 162.638 85.971 155.884 85.971 155.884 C 49.914 167.852 106.033 181.423 156.418 166.69 Z M 163.577 171.577 C 216.917 157.554 197.307 122.15 171.808 131.115 C 169.568 131.91 168.396 133.747 168.396 133.747 C 168.396 133.747 169.804 133.177 172.963 132.52 C 185.853 129.833 204.319 149.777 164.38 170.531 C 164.195 171.025 163.577 171.577 163.577 171.577 Z M 61.472 139.655 C 39.622 150.224 115.52 155.031 154.809 144.698 C 158.894 141.909 164.539 139.492 164.539 139.492 C 164.539 139.492 148.462 142.363 132.45 143.714 C 112.859 145.355 91.826 145.675 81.275 144.262 C 56.286 140.925 94.975 131.736 94.975 131.736 C 94.975 131.736 79.951 130.723 61.472 139.655 Z M 128.9 116.349 C 139.168 128.171 126.202 138.809 126.202 138.809 C 126.202 138.809 152.275 125.349 140.301 108.495 C 129.117 92.777 120.541 84.968 166.969 58.041 C 166.969 58.041 94.093 76.242 128.9 116.349 Z M 94.262 82.211 C 84.33 97.124 99.135 113.146 119.308 131.347 C 111.441 113.567 84.762 98.005 119.322 70.712 C 162.419 36.689 140.301 14.563 140.301 14.563 C 149.225 49.709 108.84 60.322 94.262 82.211 Z" style="stroke-width: 0px; filter: none;"/>
</svg>