<?xml version="1.0" encoding="utf-8"?>
<svg width="256px" height="256px" viewBox="0 0 256 256" version="1.1" preserveAspectRatio="xMidYMid" xmlns="http://www.w3.org/2000/svg">
  <path d="M 38.944 35.879 C 89.523 -13.12 170.398 -11.803 219.397 39.04 C 224.929 31.664 229.671 23.498 233.096 15.068 C 249.165 64.067 258.913 105.163 255.224 137.038 C 253.38 163.909 242.843 189.725 225.456 210.273 C 180.145 264.014 99.534 270.864 45.793 225.553 L 45.793 225.553 L 44.765 224.638 L 44.71 224.602 C 44.542 224.485 44.376 224.363 44.212 224.235 C 43.722 223.854 43.277 223.439 42.876 222.995 L 42.732 222.831 L 41.051 221.338 C 39.412 219.933 37.773 218.528 36.319 216.938 L 35.783 216.332 C -13.216 165.753 -11.636 84.878 38.944 35.879 Z M 57.911 207.376 C 53.169 203.688 46.32 204.214 42.632 208.956 C 39.389 213.126 39.405 218.925 42.68 222.771 L 42.732 222.831 L 44.765 224.638 L 44.964 224.774 C 49.569 227.802 55.764 227.176 59.298 222.896 L 59.492 222.655 C 63.18 217.913 62.39 211.064 57.911 207.376 Z M 231.779 28.239 C 218.607 55.9 185.941 76.975 157.753 83.561 C 131.146 89.883 107.964 84.615 83.464 94.098 C 27.616 115.437 28.67 181.822 59.228 196.838 L 59.228 196.838 L 61.072 197.892 C 61.072 197.892 83.146 193.503 104.974 187.707 L 106.844 187.207 C 115.562 184.858 124.139 182.297 131.146 179.715 C 167.5 166.28 207.543 133.087 220.714 94.625 C 213.865 134.667 179.355 173.392 144.845 191.043 C 126.404 200.526 112.179 202.634 81.884 213.171 C 78.196 214.488 75.298 215.806 75.298 215.806 C 75.668 215.755 76.037 215.705 76.406 215.656 L 77.142 215.561 L 77.142 215.561 L 77.875 215.469 C 84.565 214.64 90.577 214.225 90.577 214.225 C 133.517 212.117 200.957 226.343 232.306 184.457 C 264.445 141.78 246.531 72.76 231.779 28.239 Z"/>
</svg>