<?xml version="1.0" encoding="utf-8"?>
<svg width="256px" height="256px" viewBox="0 0 256 256" version="1.1" preserveAspectRatio="xMidYMid" xmlns="http://www.w3.org/2000/svg">
  <path d="M 50.282 0 L 205.718 0 C 233.488 0 256 22.512 256 50.282 L 256 205.718 C 256 233.488 233.488 256 205.718 256 L 50.282 256 C 22.512 256 0 233.488 0 205.718 L 0 50.282 C 0 22.512 22.512 0 50.282 0 Z M 127.893 234.268 L 199.557 214.4 L 215.5 35.8 L 40.5 35.8 L 56.426 214.429 Z M 178.85 116.656 L 178.315 122.539 L 173.167 180.216 L 172.837 183.918 L 128 196.344 L 128 196.347 L 127.899 196.376 L 83.022 183.918 L 79.953 149.518 L 101.945 149.518 L 103.505 166.991 L 127.904 173.579 L 127.925 173.574 L 127.925 173.572 L 152.358 166.977 L 154.902 138.564 L 78.974 138.564 L 77.01 116.656 L 156.802 116.656 L 158.795 94.222 L 75.056 94.222 L 73.065 72.314 L 182.804 72.314 Z"/>
</svg>