<?xml version="1.0" encoding="utf-8"?>
<svg width="256px" height="256px" viewBox="0 0 256 256" version="1.1" preserveAspectRatio="xMidYMid" xmlns="http://www.w3.org/2000/svg">
    <path style="filter: brightness(0.8)" d="M 170.252 81.92 L 192.505 59.667 L 193.988 50.297 C 153.437 13.424 88.976 17.605 52.421 59.021 C 42.267 70.524 34.734 84.865 30.717 99.674 L 38.687 98.551 L 83.192 91.212 L 86.628 87.698 C 106.425 65.956 139.898 63.031 162.756 81.53 L 170.252 81.92 Z"/>
    <path style="filter: brightness(0.8)" d="M 224.205 99.019 C 219.09 80.183 208.589 63.25 193.988 50.297 L 162.756 81.529 C 175.944 92.305 183.457 108.539 183.135 125.566 L 183.135 131.11 C 198.486 131.11 210.932 143.555 210.932 158.906 C 210.932 174.258 198.486 186.391 183.135 186.391 L 127.464 186.391 L 121.998 192.325 L 121.998 225.665 L 127.464 230.896 L 183.135 230.896 C 223.065 231.207 255.687 199.402 255.998 159.472 C 256.186 135.269 244.253 112.579 224.205 99.019"/>
    <path style="filter: brightness(1)" d="M 71.87 230.897 L 127.463 230.897 L 127.463 186.391 L 71.87 186.391 C 67.909 186.39 64.073 185.539 60.471 183.893 L 52.584 186.313 L 30.175 208.566 L 28.223 216.14 C 40.79 225.629 56.123 230.965 71.87 230.897"/>
    <path style="filter: brightness(1.2)" d="M 71.87 86.527 C 31.939 86.765 -0.237 119.329 0.001 159.259 C 0.134 181.557 10.548 202.547 28.223 216.14 L 60.471 183.893 C 46.48 177.572 40.263 161.107 46.584 147.117 C 52.904 133.127 69.37 126.91 83.359 133.23 C 89.524 136.015 94.461 140.953 97.246 147.117 L 129.494 114.87 C 115.773 96.933 94.453 86.446 71.87 86.527"/>
</svg>