<?xml version="1.0" encoding="utf-8"?>
<svg width="256px" height="256px" viewBox="0 0 256 256" version="1.1" preserveAspectRatio="xMidYMid" xmlns="http://www.w3.org/2000/svg">
  <path d="M 220.3 230.373 L 127.862 256 L 35.679 230.409 L 15.136 0 L 240.864 0 Z M 57.141 47.098 L 57.816 54.68 L 64.763 132.553 L 162.701 132.553 L 159.42 169.203 L 127.902 177.71 L 127.902 177.712 L 127.876 177.718 L 96.405 169.22 L 94.393 146.683 L 66.026 146.683 L 69.983 191.054 L 127.871 207.123 L 128 207.087 L 128 207.082 L 185.835 191.054 L 186.26 186.28 L 192.9 111.883 L 193.589 104.295 L 90.607 104.295 L 88.023 75.358 L 196.161 75.358 L 196.727 69.006 L 198.015 54.68 L 198.691 47.098 Z"/>
</svg>