<?xml version="1.0" encoding="utf-8"?>
<svg width="256px" height="256px" viewBox="0 0 256 256" version="1.1" preserveAspectRatio="xMidYMid" xmlns="http://www.w3.org/2000/svg">
  <path d="M 50.282 0 L 205.718 0 C 233.488 0 256 22.512 256 50.282 L 256 205.718 C 256 233.488 233.488 256 205.718 256 L 50.282 256 C 22.512 256 0 233.488 0 205.718 L 0 50.282 C 0 22.512 22.512 0 50.282 0 Z M 193.543 90.342 C 193.953 88.664 194.331 87.008 194.666 85.379 C 200.173 58.647 196.572 37.112 184.277 30.021 C 172.487 23.222 153.205 30.311 133.732 47.258 C 131.86 48.888 129.982 50.613 128.105 52.421 C 126.854 51.225 125.605 50.069 124.36 48.963 C 103.951 30.842 83.495 23.206 71.211 30.317 C 59.432 37.136 55.944 57.381 60.902 82.715 C 61.38 85.162 61.94 87.662 62.572 90.202 C 59.677 91.024 56.882 91.9 54.208 92.832 C 30.28 101.175 15 114.248 15 127.809 C 15 141.816 31.404 155.864 56.326 164.382 C 58.293 165.054 60.333 165.69 62.436 166.294 C 61.754 169.041 61.16 171.734 60.662 174.361 C 55.935 199.255 59.626 219.023 71.374 225.799 C 83.507 232.796 103.872 225.604 123.701 208.271 C 125.269 206.9 126.841 205.447 128.417 203.925 C 130.459 205.891 132.498 207.752 134.527 209.498 C 153.734 226.027 172.704 232.701 184.44 225.907 C 196.562 218.889 200.502 197.654 195.387 171.818 C 194.997 169.844 194.542 167.829 194.032 165.777 C 195.462 165.354 196.866 164.918 198.235 164.465 C 224.143 155.88 241 142.003 241 127.809 C 241 114.2 225.227 101.037 200.817 92.634 C 198.473 91.828 196.044 91.064 193.543 90.342 Z M 191.402 156.488 C 188.541 147.433 184.682 137.804 179.958 127.857 C 184.466 118.146 188.177 108.641 190.957 99.644 C 193.269 100.313 195.512 101.019 197.675 101.764 C 218.588 108.963 231.346 119.608 231.346 127.809 C 231.346 136.546 217.568 147.888 195.198 155.3 C 193.962 155.709 192.694 156.104 191.402 156.488 Z M 187.003 203.52 C 185.656 210.776 182.95 215.614 179.602 217.551 C 172.48 221.673 157.249 216.315 140.823 202.179 C 138.94 200.559 137.043 198.829 135.14 196.998 C 141.509 190.033 147.873 181.936 154.084 172.944 C 165.01 171.975 175.332 170.39 184.692 168.226 C 185.153 170.085 185.563 171.909 185.916 173.693 C 188.178 185.117 188.501 195.446 187.003 203.52 Z M 76.197 217.434 C 69.069 213.323 66.105 197.452 70.147 176.161 C 70.611 173.723 71.162 171.219 71.797 168.659 C 81.055 170.706 91.301 172.179 102.253 173.067 C 108.507 181.866 115.054 189.953 121.653 197.035 C 120.212 198.427 118.775 199.752 117.348 201.001 C 108.579 208.665 99.792 214.103 92.048 216.838 C 85.09 219.296 79.548 219.367 76.197 217.434 Z M 33.09 141.243 C 27.485 136.442 24.654 131.677 24.654 127.809 C 24.654 119.581 36.924 109.084 57.385 101.949 C 59.869 101.084 62.468 100.268 65.165 99.501 C 67.993 108.701 71.703 118.319 76.18 128.045 C 71.645 137.915 67.882 147.686 65.027 156.993 C 63.103 156.441 61.241 155.859 59.449 155.246 C 48.428 151.48 39.328 146.585 33.09 141.243 Z M 76.048 38.673 C 83.609 34.295 100.328 40.536 117.949 56.182 C 119.076 57.182 120.206 58.229 121.34 59.313 C 114.774 66.363 108.286 74.39 102.088 83.137 C 91.459 84.122 81.284 85.705 71.93 87.824 C 71.342 85.458 70.821 83.134 70.376 80.861 C 66.129 59.156 68.949 42.781 76.048 38.673 Z M 160.99 93.631 C 168.201 94.542 175.109 95.753 181.597 97.233 C 179.65 103.476 177.222 110.003 174.364 116.694 C 172.314 112.801 170.145 108.877 167.862 104.933 C 165.626 101.071 163.33 97.299 160.99 93.631 Z M 141.407 82.268 C 136.987 82.058 132.512 81.95 128 81.95 C 123.531 81.95 119.089 82.057 114.696 82.261 C 119.087 76.471 123.585 71.092 128.108 66.212 C 132.561 71.036 137.021 76.423 141.407 82.268 Z M 81.718 116.687 C 78.908 110.019 76.502 103.462 74.538 97.131 C 80.986 95.688 87.862 94.509 95.027 93.614 C 92.653 97.316 90.338 101.116 88.099 104.999 L 88.099 105 C 85.865 108.874 83.737 112.777 81.718 116.687 Z M 74.404 159.346 C 76.4 152.901 78.859 146.205 81.73 139.394 C 83.752 143.301 85.889 147.206 88.137 151.087 C 90.427 155.042 92.799 158.916 95.233 162.694 C 87.83 161.868 80.851 160.749 74.404 159.346 Z M 114.777 173.815 C 119.105 173.985 123.516 174.071 128 174.071 C 132.606 174.071 137.16 173.968 141.642 173.768 C 137.241 179.749 132.798 185.219 128.375 190.088 C 123.799 185.151 119.234 179.69 114.777 173.815 Z M 182.045 158.928 C 175.493 160.422 168.418 161.626 160.963 162.521 C 163.31 158.803 165.625 154.967 167.901 151.021 C 170.204 147.029 172.39 143.031 174.456 139.047 C 177.477 145.932 180.023 152.593 182.045 158.928 Z M 148.697 163.69 C 141.99 164.17 135.062 164.417 128 164.417 C 120.967 164.417 114.126 164.199 107.538 163.771 C 103.708 158.179 100.002 152.314 96.491 146.25 L 96.492 146.25 C 92.991 140.203 89.769 134.105 86.849 128.041 C 89.768 121.963 92.982 115.859 96.463 109.822 L 96.462 109.824 C 99.952 103.771 103.625 97.935 107.421 92.378 C 114.142 91.87 121.035 91.605 128 91.605 C 134.997 91.605 141.898 91.872 148.617 92.385 C 152.354 97.9 156.003 103.718 159.507 109.771 C 163.05 115.892 166.305 121.956 169.249 127.905 C 166.314 133.954 163.066 140.079 159.538 146.197 C 156.005 152.323 152.379 158.171 148.697 163.69 Z M 185.211 83.431 C 184.907 84.904 184.566 86.404 184.195 87.925 C 174.819 85.761 164.637 84.151 153.977 83.15 C 147.767 74.307 141.332 66.268 134.873 59.308 C 136.609 57.637 138.343 56.044 140.071 54.541 C 156.755 40.021 172.35 34.288 179.455 38.385 C 187.022 42.749 189.965 60.351 185.211 83.431 Z M 128 107.628 C 116.854 107.628 107.819 116.664 107.819 127.809 C 107.819 138.955 116.854 147.99 128 147.99 C 139.145 147.99 148.181 138.955 148.181 127.809 C 148.181 116.664 139.145 107.628 128 107.628 Z" style="stroke-width: 0px; filter: none;"/>
</svg>