<?xml version="1.0" encoding="utf-8"?>
<svg width="256px" height="256px" viewBox="0 0 256 256" version="1.1" preserveAspectRatio="xMidYMid" xmlns="http://www.w3.org/2000/svg">
  <path d="M 50.282 0 L 205.718 0 C 233.488 0 256 22.512 256 50.282 L 256 205.718 C 256 233.488 233.488 256 205.718 256 L 50.282 256 C 22.512 256 0 233.488 0 205.718 L 0 50.282 C 0 22.512 22.512 0 50.282 0 Z M 56.611 128.849 L 56.53 139.333 L 89.851 139.333 L 89.851 234.012 L 113.419 234.012 L 113.419 139.333 L 146.739 139.333 L 146.739 129.052 C 146.739 123.363 146.618 118.609 146.455 118.487 C 146.333 118.325 126.056 118.243 101.472 118.284 L 56.733 118.406 Z M 187.143 117.539 C 173.246 120.181 163.616 129.08 160.893 141.839 C 160.121 145.496 160.365 154.558 161.34 158.174 C 162.518 162.522 165.363 167.724 168.37 170.974 C 173.571 176.582 179.26 180.117 192.466 185.806 C 204.007 190.804 208.07 193.202 210.061 196.046 C 211.605 198.281 211.971 199.581 211.971 202.548 C 211.971 205.839 210.996 208.074 208.639 210.228 C 203.113 215.185 191.897 215.795 183.73 211.487 C 180.885 209.984 176.172 205.473 174.018 202.182 L 172.474 199.906 L 165.119 204.173 C 161.056 206.53 156.748 209.009 155.61 209.659 C 154.432 210.35 153.376 211 153.254 211.162 C 152.969 211.65 157.561 218.436 159.918 221.037 C 165.932 227.701 175.684 232.78 185.965 234.609 C 190.678 235.462 201.081 235.584 205.469 234.812 C 219.651 232.414 229.729 225.181 233.792 214.535 C 237.49 204.742 236.271 191.576 230.826 183.327 C 225.949 175.932 218.107 170.731 199.781 162.847 C 189.825 158.54 186.656 156.427 184.949 152.892 C 184.136 151.266 183.852 150.088 183.852 148.097 C 183.811 141.311 188.809 137.247 196.57 137.776 C 201.853 138.141 205.307 140.214 208.598 145.009 C 209.696 146.634 210.671 147.691 210.915 147.528 C 217.66 143.343 228.794 135.866 228.713 135.541 C 228.428 134.444 224.934 129.852 222.577 127.332 C 218.026 122.619 213.068 119.734 206.567 118.108 C 202.137 117.011 191.654 116.686 187.143 117.539 Z" style="stroke-width: 0px; filter: none;"/>
</svg>